<?xml version="1.0" encoding="utf-8"?>
<!-- Generator: Adobe Illustrator 25.4.1, SVG Export Plug-In . SVG Version: 6.00 Build 0)  -->
<svg version="1.1" id="Layer_1" xmlns="http://www.w3.org/2000/svg" xmlns:xlink="http://www.w3.org/1999/xlink" x="0px" y="0px"
	 viewBox="0 0 191 74" style="enable-background:new 0 0 191 74;" xml:space="preserve">
<style type="text/css">
	.st0{fill:#3838B2;}
	.st1{fill:url(#SVGID_1_);}
	.st2{fill:url(#SVGID_00000016762429502712027190000000065216915180941708_);}
	.st3{fill:#01B3E6;}
	.st4{fill:#7D7DEA;}
	.st5{fill:#554BE0;}
</style>
<g>
	<path class="st0" d="M87.9,34.88h-3.37V16.81h3.37V34.88z"/>
	<path class="st0" d="M94.15,23.63c0.26-0.26,0.53-0.5,0.82-0.72c0.29-0.22,0.59-0.41,0.91-0.56c0.32-0.15,0.67-0.27,1.03-0.36
		c0.37-0.09,0.77-0.13,1.2-0.13c0.7,0,1.32,0.12,1.86,0.36c0.54,0.24,0.99,0.57,1.36,1c0.36,0.43,0.64,0.94,0.83,1.54
		s0.28,1.25,0.28,1.97v8.16h-3.09v-8.16c0-0.78-0.18-1.39-0.54-1.82c-0.36-0.43-0.9-0.64-1.64-0.64c-0.53,0-1.03,0.12-1.5,0.36
		s-0.91,0.57-1.33,0.99v9.27h-3.09V22.06h1.89c0.4,0,0.66,0.19,0.79,0.56L94.15,23.63z"/>
	<path class="st0" d="M109.46,35.08c-1.12,0-1.97-0.31-2.57-0.94c-0.6-0.63-0.89-1.5-0.89-2.61v-7.16h-1.31
		c-0.17,0-0.31-0.05-0.42-0.16c-0.12-0.11-0.17-0.27-0.17-0.49V22.5l2.06-0.34l0.65-3.5c0.04-0.17,0.12-0.3,0.24-0.39
		c0.12-0.09,0.27-0.14,0.45-0.14h1.6v4.04h3.42v2.2h-3.42v6.95c0,0.4,0.1,0.71,0.29,0.94c0.2,0.22,0.46,0.34,0.81,0.34
		c0.19,0,0.35-0.02,0.48-0.07c0.13-0.05,0.24-0.09,0.34-0.14c0.1-0.05,0.18-0.1,0.26-0.14c0.08-0.05,0.15-0.07,0.23-0.07
		c0.09,0,0.17,0.02,0.22,0.07c0.06,0.05,0.12,0.11,0.19,0.21l0.92,1.5c-0.45,0.38-0.97,0.66-1.55,0.85
		C110.69,34.98,110.09,35.08,109.46,35.08z"/>
	<path class="st0" d="M116.76,28.86c0.05,0.66,0.17,1.23,0.35,1.71c0.18,0.48,0.43,0.88,0.73,1.19s0.66,0.55,1.07,0.7
		c0.41,0.15,0.87,0.23,1.37,0.23s0.93-0.06,1.29-0.17s0.68-0.25,0.95-0.39c0.27-0.14,0.51-0.27,0.71-0.39s0.4-0.18,0.59-0.18
		c0.26,0,0.45,0.1,0.58,0.29l0.89,1.12c-0.34,0.4-0.73,0.74-1.15,1.01c-0.42,0.27-0.87,0.49-1.33,0.65
		c-0.46,0.16-0.93,0.28-1.41,0.34c-0.48,0.07-0.94,0.1-1.39,0.1c-0.89,0-1.72-0.15-2.49-0.44c-0.77-0.3-1.43-0.73-2-1.31
		s-1.01-1.3-1.34-2.15s-0.49-1.84-0.49-2.97c0-0.88,0.14-1.7,0.42-2.47c0.28-0.77,0.69-1.44,1.22-2.01
		c0.53-0.57,1.17-1.02,1.94-1.36c0.76-0.33,1.62-0.5,2.58-0.5c0.81,0,1.55,0.13,2.24,0.39s1.27,0.64,1.76,1.13
		c0.49,0.5,0.88,1.1,1.16,1.82c0.28,0.72,0.42,1.54,0.42,2.47c0,0.47-0.05,0.78-0.15,0.94c-0.1,0.16-0.29,0.24-0.58,0.24H116.76z
		 M122.65,26.99c0-0.4-0.06-0.78-0.17-1.13c-0.11-0.35-0.28-0.66-0.51-0.93s-0.51-0.48-0.86-0.63c-0.35-0.15-0.75-0.23-1.21-0.23
		c-0.89,0-1.59,0.25-2.11,0.76c-0.51,0.51-0.84,1.23-0.98,2.16H122.65z"/>
	<path class="st0" d="M130.65,24.28c0.4-0.77,0.88-1.37,1.42-1.81c0.55-0.44,1.2-0.66,1.95-0.66c0.59,0,1.07,0.13,1.42,0.39
		l-0.2,2.31c-0.04,0.15-0.1,0.26-0.18,0.32c-0.08,0.06-0.19,0.09-0.32,0.09c-0.12,0-0.31-0.02-0.56-0.06
		c-0.25-0.04-0.49-0.06-0.72-0.06c-0.34,0-0.65,0.05-0.91,0.15c-0.27,0.1-0.51,0.24-0.72,0.43c-0.21,0.19-0.4,0.41-0.56,0.68
		c-0.16,0.27-0.31,0.57-0.46,0.91v7.9h-3.09V22.06h1.81c0.32,0,0.54,0.06,0.66,0.17c0.12,0.11,0.21,0.31,0.25,0.61L130.65,24.28z"/>
	<path class="st0" d="M137.96,34.88v-10.5l-1.11-0.18c-0.24-0.05-0.44-0.14-0.58-0.26c-0.15-0.12-0.22-0.29-0.22-0.52v-1.26h1.91
		v-0.95c0-0.73,0.11-1.39,0.33-1.97c0.22-0.58,0.54-1.08,0.95-1.49c0.41-0.41,0.91-0.72,1.51-0.94s1.26-0.33,2-0.33
		c0.59,0,1.14,0.08,1.65,0.24l-0.06,1.55c-0.01,0.12-0.04,0.21-0.1,0.28c-0.06,0.07-0.14,0.12-0.23,0.16
		c-0.1,0.04-0.21,0.06-0.33,0.08s-0.26,0.02-0.4,0.02c-0.37,0-0.69,0.04-0.98,0.12c-0.29,0.08-0.53,0.22-0.73,0.41
		s-0.35,0.45-0.46,0.77c-0.1,0.32-0.16,0.72-0.16,1.19v0.85h3.34v2.2h-3.24v10.51H137.96z"/>
	<path class="st0" d="M145.68,23.84c1.47-1.35,3.25-2.02,5.32-2.02c0.75,0,1.42,0.12,2.01,0.37c0.59,0.25,1.09,0.59,1.5,1.02
		c0.41,0.44,0.72,0.96,0.93,1.57c0.21,0.61,0.32,1.27,0.32,2v8.1h-1.4c-0.29,0-0.52-0.04-0.67-0.13s-0.28-0.26-0.38-0.53l-0.28-0.92
		c-0.32,0.29-0.64,0.55-0.95,0.77c-0.31,0.22-0.63,0.41-0.96,0.56c-0.33,0.15-0.69,0.26-1.07,0.34s-0.8,0.12-1.26,0.12
		c-0.54,0-1.04-0.07-1.5-0.22c-0.46-0.15-0.85-0.36-1.19-0.66s-0.59-0.65-0.77-1.09c-0.18-0.43-0.28-0.94-0.28-1.51
		c0-0.33,0.05-0.65,0.16-0.97c0.11-0.32,0.29-0.63,0.53-0.92c0.25-0.29,0.56-0.57,0.96-0.83s0.87-0.48,1.44-0.67
		c0.57-0.19,1.24-0.35,1.99-0.47c0.76-0.12,1.62-0.19,2.6-0.22v-0.75c0-0.86-0.18-1.49-0.55-1.91c-0.37-0.41-0.9-0.62-1.59-0.62
		c-0.5,0-0.92,0.06-1.24,0.17s-0.62,0.25-0.87,0.39c-0.25,0.15-0.48,0.28-0.68,0.39s-0.43,0.17-0.68,0.17
		c-0.22,0-0.4-0.06-0.55-0.17c-0.15-0.11-0.27-0.24-0.36-0.39L145.68,23.84z M152.76,29.41c-0.89,0.04-1.64,0.12-2.25,0.23
		c-0.61,0.11-1.1,0.26-1.46,0.43c-0.37,0.18-0.63,0.38-0.79,0.61c-0.16,0.23-0.24,0.49-0.24,0.76c0,0.54,0.16,0.93,0.48,1.16
		c0.32,0.23,0.74,0.35,1.26,0.35c0.63,0,1.18-0.11,1.64-0.34c0.46-0.23,0.92-0.58,1.36-1.04V29.41z"/>
	<path class="st0" d="M162.29,18.32c0,0.27-0.05,0.52-0.16,0.75c-0.11,0.23-0.25,0.44-0.43,0.61c-0.18,0.18-0.39,0.31-0.63,0.42
		c-0.24,0.1-0.5,0.16-0.78,0.16c-0.27,0-0.52-0.05-0.76-0.16c-0.24-0.1-0.44-0.24-0.62-0.42c-0.17-0.17-0.31-0.38-0.42-0.61
		c-0.1-0.23-0.16-0.48-0.16-0.75c0-0.27,0.05-0.53,0.16-0.77c0.1-0.24,0.24-0.45,0.42-0.62c0.18-0.18,0.38-0.31,0.62-0.42
		c0.24-0.1,0.49-0.16,0.76-0.16c0.28,0,0.53,0.05,0.78,0.16c0.24,0.1,0.45,0.24,0.63,0.42c0.18,0.17,0.32,0.38,0.43,0.62
		C162.24,17.79,162.29,18.05,162.29,18.32z M161.87,22.06v12.82h-3.1V22.06H161.87z"/>
	<path class="st0" d="M169.29,35.08c-1.12,0-1.97-0.31-2.57-0.94c-0.6-0.63-0.89-1.5-0.89-2.61v-7.16h-1.31
		c-0.17,0-0.31-0.05-0.42-0.16c-0.12-0.11-0.17-0.27-0.17-0.49V22.5l2.06-0.34l0.65-3.5c0.04-0.17,0.12-0.3,0.24-0.39
		c0.12-0.09,0.27-0.14,0.45-0.14h1.6v4.04h3.42v2.2h-3.42v6.95c0,0.4,0.1,0.71,0.29,0.94c0.2,0.22,0.46,0.34,0.81,0.34
		c0.19,0,0.35-0.02,0.48-0.07c0.13-0.05,0.24-0.09,0.34-0.14c0.1-0.05,0.18-0.1,0.26-0.14c0.08-0.05,0.15-0.07,0.23-0.07
		c0.09,0,0.17,0.02,0.22,0.07c0.06,0.05,0.12,0.11,0.19,0.21l0.92,1.5c-0.45,0.38-0.97,0.66-1.55,0.85
		C170.52,34.98,169.92,35.08,169.29,35.08z"/>
	<path class="st0" d="M177.4,23.43c0.5-0.47,1.05-0.85,1.65-1.14c0.6-0.29,1.3-0.44,2.11-0.44c0.7,0,1.32,0.12,1.86,0.36
		c0.54,0.24,0.99,0.57,1.36,1c0.36,0.43,0.64,0.94,0.83,1.54s0.28,1.25,0.28,1.97v8.16h-3.09v-8.16c0-0.78-0.18-1.39-0.54-1.82
		c-0.36-0.43-0.9-0.64-1.64-0.64c-0.53,0-1.03,0.12-1.5,0.36s-0.91,0.57-1.32,0.99v9.27h-3.09V16.31h3.09V23.43z"/>
	<path class="st0" d="M100.01,64.88h-2.6c-0.29,0-0.53-0.07-0.71-0.22s-0.32-0.33-0.41-0.54l-1.35-3.69h-7.49l-1.35,3.69
		c-0.07,0.19-0.2,0.37-0.39,0.53c-0.19,0.16-0.43,0.24-0.71,0.24h-2.62l7.11-18.07h3.42L100.01,64.88z M94.08,58.05l-2.2-6.01
		c-0.11-0.27-0.22-0.58-0.34-0.95c-0.12-0.37-0.23-0.76-0.35-1.19c-0.11,0.42-0.22,0.82-0.34,1.19s-0.23,0.69-0.34,0.97l-2.19,5.99
		H94.08z"/>
	<path class="st0" d="M101.38,64.88V52.05h1.89c0.4,0,0.66,0.19,0.79,0.56l0.2,0.95c0.22-0.25,0.46-0.48,0.71-0.69
		c0.25-0.21,0.51-0.39,0.79-0.54c0.28-0.15,0.58-0.27,0.9-0.36c0.32-0.09,0.67-0.13,1.06-0.13c0.81,0,1.47,0.22,1.99,0.66
		c0.52,0.44,0.91,1.02,1.17,1.74c0.2-0.42,0.45-0.79,0.75-1.09c0.3-0.3,0.63-0.55,0.99-0.74s0.74-0.33,1.14-0.42
		s0.81-0.14,1.22-0.14c0.71,0,1.34,0.11,1.89,0.33s1.01,0.53,1.39,0.95c0.38,0.42,0.66,0.92,0.86,1.52c0.2,0.6,0.29,1.29,0.29,2.06
		v8.16h-3.09v-8.16c0-0.82-0.18-1.43-0.54-1.84s-0.88-0.62-1.57-0.62c-0.32,0-0.61,0.05-0.88,0.16c-0.27,0.11-0.51,0.26-0.71,0.47
		s-0.36,0.46-0.48,0.77c-0.12,0.31-0.17,0.66-0.17,1.06v8.16h-3.1v-8.16c0-0.86-0.17-1.48-0.52-1.88s-0.85-0.59-1.52-0.59
		c-0.45,0-0.87,0.11-1.26,0.33c-0.39,0.22-0.75,0.52-1.08,0.91v9.39H101.38z"/>
	<path class="st0" d="M124.69,58.85c0.05,0.66,0.17,1.23,0.35,1.71c0.18,0.48,0.43,0.88,0.73,1.19s0.66,0.55,1.07,0.7
		s0.87,0.23,1.37,0.23s0.93-0.06,1.29-0.17c0.36-0.12,0.68-0.25,0.95-0.39c0.27-0.14,0.51-0.27,0.71-0.39
		c0.2-0.12,0.4-0.17,0.59-0.17c0.26,0,0.45,0.1,0.58,0.29l0.89,1.12c-0.34,0.4-0.73,0.74-1.15,1.01s-0.87,0.49-1.33,0.65
		c-0.46,0.16-0.93,0.28-1.41,0.34c-0.48,0.07-0.94,0.1-1.39,0.1c-0.89,0-1.72-0.15-2.49-0.44c-0.77-0.3-1.43-0.73-2-1.31
		s-1.01-1.3-1.34-2.15c-0.33-0.85-0.49-1.84-0.49-2.97c0-0.88,0.14-1.7,0.42-2.47c0.28-0.77,0.69-1.44,1.22-2.01
		c0.53-0.57,1.17-1.02,1.94-1.36c0.76-0.33,1.62-0.5,2.58-0.5c0.81,0,1.55,0.13,2.24,0.39s1.27,0.64,1.76,1.13
		c0.49,0.5,0.88,1.1,1.16,1.83c0.28,0.72,0.42,1.54,0.42,2.47c0,0.47-0.05,0.78-0.15,0.94c-0.1,0.16-0.29,0.24-0.58,0.24H124.69z
		 M130.57,56.99c0-0.4-0.06-0.78-0.17-1.13s-0.28-0.66-0.51-0.93s-0.51-0.48-0.86-0.63s-0.75-0.23-1.21-0.23
		c-0.89,0-1.59,0.25-2.11,0.76c-0.51,0.51-0.84,1.23-0.98,2.16H130.57z"/>
	<path class="st0" d="M138.57,54.28c0.4-0.77,0.88-1.37,1.42-1.81c0.55-0.44,1.2-0.66,1.95-0.66c0.59,0,1.07,0.13,1.42,0.39
		l-0.2,2.31c-0.04,0.15-0.1,0.26-0.18,0.32c-0.08,0.06-0.19,0.09-0.32,0.09c-0.12,0-0.31-0.02-0.56-0.06
		c-0.25-0.04-0.49-0.06-0.72-0.06c-0.34,0-0.65,0.05-0.91,0.15c-0.27,0.1-0.51,0.24-0.72,0.43c-0.21,0.19-0.4,0.41-0.56,0.68
		c-0.16,0.27-0.31,0.57-0.46,0.91v7.9h-3.09V52.05h1.81c0.32,0,0.54,0.06,0.66,0.17s0.21,0.31,0.25,0.61L138.57,54.28z"/>
	<path class="st0" d="M148.61,48.32c0,0.27-0.05,0.52-0.16,0.75c-0.11,0.23-0.25,0.44-0.43,0.61c-0.18,0.17-0.39,0.31-0.63,0.42
		c-0.24,0.1-0.5,0.16-0.78,0.16c-0.27,0-0.52-0.05-0.76-0.16s-0.44-0.24-0.62-0.42c-0.17-0.17-0.31-0.38-0.42-0.61
		c-0.1-0.23-0.16-0.48-0.16-0.75c0-0.27,0.05-0.53,0.16-0.77c0.1-0.24,0.24-0.45,0.42-0.62c0.18-0.17,0.38-0.31,0.62-0.42
		s0.49-0.16,0.76-0.16c0.28,0,0.53,0.05,0.78,0.16c0.24,0.1,0.45,0.24,0.63,0.42c0.18,0.17,0.32,0.38,0.43,0.62
		C148.55,47.78,148.61,48.04,148.61,48.32z M148.18,52.05v12.82h-3.1V52.05H148.18z"/>
	<path class="st0" d="M160.52,54.77c-0.09,0.12-0.18,0.21-0.27,0.28s-0.21,0.1-0.38,0.1c-0.16,0-0.31-0.05-0.46-0.14
		c-0.15-0.1-0.33-0.2-0.54-0.33c-0.21-0.12-0.46-0.23-0.74-0.33c-0.29-0.1-0.64-0.14-1.07-0.14c-0.54,0-1.02,0.1-1.42,0.29
		c-0.41,0.2-0.75,0.48-1.02,0.84s-0.47,0.81-0.61,1.33c-0.13,0.52-0.2,1.11-0.2,1.77c0,0.68,0.07,1.29,0.22,1.82
		c0.15,0.53,0.36,0.98,0.63,1.34c0.27,0.36,0.61,0.64,1,0.83c0.39,0.19,0.83,0.28,1.32,0.28c0.49,0,0.89-0.06,1.19-0.18
		c0.3-0.12,0.56-0.25,0.77-0.4c0.21-0.15,0.39-0.28,0.54-0.4c0.15-0.12,0.33-0.18,0.52-0.18c0.25,0,0.44,0.1,0.56,0.29l0.89,1.12
		c-0.34,0.4-0.71,0.74-1.11,1.01s-0.81,0.49-1.24,0.65c-0.43,0.16-0.87,0.28-1.33,0.34c-0.45,0.07-0.91,0.1-1.36,0.1
		c-0.79,0-1.54-0.15-2.24-0.44c-0.7-0.3-1.31-0.73-1.84-1.29c-0.52-0.57-0.94-1.26-1.24-2.08c-0.3-0.82-0.46-1.76-0.46-2.81
		c0-0.94,0.14-1.81,0.41-2.62c0.27-0.8,0.67-1.5,1.19-2.09c0.52-0.59,1.17-1.05,1.95-1.38c0.78-0.33,1.67-0.5,2.67-0.5
		c0.96,0,1.8,0.15,2.52,0.46c0.72,0.31,1.37,0.75,1.94,1.32L160.52,54.77z"/>
	<path class="st0" d="M163.08,53.84c1.47-1.35,3.25-2.02,5.32-2.02c0.75,0,1.42,0.12,2.01,0.37c0.59,0.25,1.09,0.59,1.5,1.03
		s0.72,0.96,0.93,1.57c0.21,0.61,0.32,1.27,0.32,2v8.1h-1.4c-0.29,0-0.52-0.04-0.67-0.13c-0.16-0.09-0.28-0.26-0.38-0.53l-0.28-0.92
		c-0.32,0.29-0.64,0.55-0.95,0.77c-0.31,0.22-0.63,0.41-0.96,0.56c-0.33,0.15-0.69,0.26-1.07,0.34s-0.8,0.12-1.26,0.12
		c-0.54,0-1.04-0.07-1.5-0.22s-0.85-0.36-1.19-0.66s-0.59-0.65-0.77-1.09c-0.18-0.43-0.28-0.94-0.28-1.51
		c0-0.33,0.05-0.65,0.16-0.97c0.11-0.32,0.29-0.63,0.53-0.92c0.25-0.29,0.56-0.57,0.96-0.82c0.39-0.26,0.87-0.48,1.44-0.68
		c0.57-0.19,1.24-0.35,1.99-0.47c0.76-0.12,1.62-0.19,2.6-0.22v-0.75c0-0.86-0.18-1.49-0.55-1.91c-0.37-0.41-0.9-0.62-1.59-0.62
		c-0.5,0-0.92,0.06-1.24,0.18c-0.33,0.12-0.62,0.25-0.87,0.39s-0.48,0.28-0.68,0.39s-0.43,0.17-0.68,0.17
		c-0.22,0-0.4-0.06-0.55-0.17c-0.15-0.11-0.27-0.24-0.36-0.39L163.08,53.84z M170.15,59.4c-0.89,0.04-1.64,0.12-2.25,0.23
		s-1.1,0.26-1.46,0.43c-0.37,0.17-0.63,0.38-0.79,0.61s-0.24,0.49-0.24,0.76c0,0.54,0.16,0.93,0.48,1.16
		c0.32,0.23,0.74,0.35,1.26,0.35c0.63,0,1.18-0.11,1.64-0.34c0.46-0.23,0.92-0.58,1.36-1.04V59.4z"/>
</g>
<g>
	<linearGradient id="SVGID_1_" gradientUnits="userSpaceOnUse" x1="19.9832" y1="63.7114" x2="44.1177" y2="31.1823">
		<stop  offset="0" style="stop-color:#7D7DEA"/>
		<stop  offset="0.2286" style="stop-color:#7A79E9"/>
		<stop  offset="0.4731" style="stop-color:#6F6CE7"/>
		<stop  offset="0.7241" style="stop-color:#5E57E2"/>
		<stop  offset="0.7961" style="stop-color:#584FE1"/>
		<stop  offset="1" style="stop-color:#5507E0"/>
	</linearGradient>
	<path class="st1" d="M24,43.53l7.39-15.7c0,0,2.88-5.04,5.38-7.26c2.5-2.23,14.21,10.36,14.21,10.36l-15.6,32.64
		c-1.98,4.15-5.93,6.97-10.28,6.74c-0.43-0.02-0.75-0.05-1.16-0.13L24,43.53z"/>
	
		<linearGradient id="SVGID_00000008857259255773425310000009676471888977476999_" gradientUnits="userSpaceOnUse" x1="55.6971" y1="70.1807" x2="55.6971" y2="10.2459">
		<stop  offset="0.5362" style="stop-color:#554BE0"/>
		<stop  offset="1" style="stop-color:#7D7DEA"/>
	</linearGradient>
	<path style="fill:url(#SVGID_00000008857259255773425310000009676471888977476999_);" d="M55.56,63.16l-3.48-6.89l-4.06-8.47
		l-2.59-5.41l-7.2-15.03c-1.2-2.56-5.02-3.35-6.84,0.46l6.08-12.56c3.42-7.07,12.86-7.07,16.28,0l19.63,41.01L80,69.43
		C80,69.43,61.4,72.9,55.56,63.16z"/>
</g>
<polygon class="st3" points="16.24,58 16.26,57.99 16.24,58 "/>
<circle class="st4" cx="13.96" cy="11.32" r="8.16"/>
<g>
	<path class="st5" d="M22.46,70.28c-9.01,0-16.32-7.31-16.32-16.32v-18.5V21.31c0,0,15.13-2.7,16.44,12.42L22.46,70.28z"/>
</g>
</svg>
